<svg width="33" height="31" viewBox="0 0 33 31" fill="none" xmlns="http://www.w3.org/2000/svg">
<path d="M16.0731 30.7903C7.21002 30.7903 0 23.8844 0 15.3951C0 6.90592 7.21002 0 16.0731 0C24.9361 0 32.1461 6.90592 32.1461 15.3951C32.1461 23.8844 24.9361 30.7903 16.0731 30.7903ZM16.0731 1.92439C8.31784 1.92439 2.00913 7.96701 2.00913 15.3951C2.00913 22.8233 8.31784 28.8659 16.0731 28.8659C23.8283 28.8659 30.137 22.8233 30.137 15.3951C30.137 7.96701 23.8283 1.92439 16.0731 1.92439Z" fill="black"/>
<path d="M23.1046 15.3951H9.0407C8.48618 15.3951 8.03613 14.9641 8.03613 14.433C8.03613 13.9019 8.48618 13.4708 9.0407 13.4708H23.1046C23.6591 13.4708 24.1092 13.9019 24.1092 14.433C24.1092 14.9641 23.6591 15.3951 23.1046 15.3951Z" fill="black"/>
<path d="M15.0685 21.1683L15.0685 7.69755C15.0685 7.16641 15.5185 6.73535 16.0731 6.73535C16.6276 6.73535 17.0776 7.16641 17.0776 7.69755L17.0776 21.1683C17.0776 21.6994 16.6276 22.1305 16.0731 22.1305C15.5185 22.1305 15.0685 21.6994 15.0685 21.1683Z" fill="black"/>
</svg>
