<svg width="68" height="68" viewBox="0 0 68 68" fill="none" xmlns="http://www.w3.org/2000/svg">
<circle cx="34" cy="34" r="34" fill="black"/>
<path d="M38.2976 50.2979C37.0258 50.2979 35.991 51.3327 35.991 52.6045C35.991 53.8762 37.0258 54.9111 38.2976 54.9111C39.5693 54.9111 40.6043 53.8762 40.6043 52.6045C40.6043 51.3327 39.5693 50.2979 38.2976 50.2979ZM38.2976 53.3734C37.8732 53.3734 37.5287 53.0289 37.5287 52.6045C37.5287 52.1801 37.8732 51.8356 38.2976 51.8356C38.722 51.8356 39.0665 52.1801 39.0665 52.6045C39.0665 53.0289 38.722 53.3734 38.2976 53.3734Z" fill="white"/>
<path d="M35.0665 47.2222C32.0986 47.2222 29.6843 49.6372 29.6843 52.6043C29.6843 55.5715 32.0986 57.9865 35.0665 57.9865C38.0336 57.9865 40.4487 55.5715 40.4487 52.6043C40.4487 49.6372 38.0336 47.2222 35.0665 47.2222ZM35.0665 56.4487C32.9467 56.4487 31.2221 54.7241 31.2221 52.6043C31.2221 50.4845 32.9467 48.7599 35.0665 48.7599C37.1863 48.7599 38.9109 50.4845 38.9109 52.6043C38.9109 54.7241 37.1863 56.4487 35.0665 56.4487Z" fill="white"/>
<path d="M31.2221 39.5303H29.6843V52.6013H31.2221V39.5303Z" fill="white"/>
<path d="M21.2343 20.7913C20.5646 19.5495 19.2713 18.7761 17.8589 18.7729H12V20.3107H17.8573C18.7039 20.313 19.4789 20.7766 19.881 21.5224L34.3898 48.3564L35.743 47.6244L21.2343 20.7913Z" fill="white"/>
<path d="M57.9256 44.2443L42.5442 52.6985L43.2846 54.0456L58.666 45.5914L57.9256 44.2443Z" fill="white"/>
<path d="M45.731 30.6958L38.8096 18.393C38.7096 18.2146 38.5436 18.0839 38.3467 18.0293C38.1498 17.9731 37.9408 17.9985 37.7624 18.0992L25.4595 25.0207C25.0897 25.2291 24.9582 25.6981 25.1666 26.0679L32.088 38.3715C32.1879 38.5499 32.3549 38.6806 32.5509 38.7352C32.6193 38.7537 32.6893 38.7636 32.7585 38.7636C32.8892 38.7636 33.0192 38.7298 33.1353 38.6637L45.4381 31.743C45.8087 31.5347 45.9394 31.0656 45.731 30.6958ZM33.0506 36.9476L26.8835 25.9841L37.847 19.8161L44.0134 30.7804L33.0506 36.9476Z" fill="white"/>
<path d="M36.3737 24.1474L34.4506 20.8182C34.2384 20.4506 33.7671 20.3238 33.4003 20.5367L30.0711 22.4589C29.7036 22.6711 29.5775 23.1409 29.7897 23.5092L31.7119 26.8384C31.8541 27.0852 32.1124 27.2229 32.3784 27.2229C32.5091 27.2229 32.6414 27.1898 32.7621 27.1199L36.0921 25.1977C36.2689 25.0962 36.3981 24.9286 36.4503 24.731C36.5028 24.5334 36.4759 24.3235 36.3737 24.1474ZM32.66 25.4038L31.5067 23.4062L33.5042 22.253L34.6576 24.2505L32.66 25.4038Z" fill="white"/>
<path d="M55.8798 42.9988L48.9583 30.6959C48.7507 30.3261 48.2825 30.1939 47.9119 30.403L35.6091 37.3237C35.2392 37.5321 35.1078 38.001 35.3161 38.3708L42.2376 50.6745C42.3375 50.8529 42.5036 50.9836 42.7004 51.0382C42.7689 51.0567 42.8381 51.0666 42.908 51.0666C43.0388 51.0666 43.1687 51.0335 43.2833 50.9674L55.5869 44.046C55.7653 43.9461 55.896 43.7799 55.9506 43.5831C56.0052 43.3871 55.9806 43.1764 55.8798 42.9988ZM43.2009 49.2505L37.0338 38.287L47.9973 32.1199L54.1644 43.0834L43.2009 49.2505Z" fill="white"/>
<path d="M46.5201 36.4547L44.5979 33.1255C44.3849 32.7572 43.9135 32.631 43.5476 32.844L40.2183 34.7662C39.8508 34.9784 39.7247 35.4482 39.9369 35.8165L41.8591 39.1457C42.0013 39.3925 42.2597 39.5302 42.5257 39.5302C42.6564 39.5302 42.7886 39.4971 42.9093 39.4271L46.2385 37.505C46.6062 37.2928 46.7323 36.823 46.5201 36.4547ZM42.8064 37.711L41.6531 35.7134L43.6507 34.5602L44.804 36.5577L42.8064 37.711Z" fill="white"/>
</svg>
