<svg width="33" height="31" viewBox="0 0 33 31" fill="none" xmlns="http://www.w3.org/2000/svg">
<path d="M16.0731 30.7903C7.21002 30.7903 0 23.8844 0 15.3951C0 6.90592 7.21002 0 16.0731 0C24.9361 0 32.1461 6.90592 32.1461 15.3951C32.1461 23.8844 24.9361 30.7903 16.0731 30.7903ZM16.0731 1.92439C8.31784 1.92439 2.00913 7.96701 2.00913 15.3951C2.00913 22.8233 8.31784 28.8659 16.0731 28.8659C23.8283 28.8659 30.137 22.8233 30.137 15.3951C30.137 7.96701 23.8283 1.92439 16.0731 1.92439Z" fill="black"/>
<path d="M23.1046 16.3573H9.0407C8.48618 16.3573 8.03613 15.9263 8.03613 15.3952C8.03613 14.8641 8.48618 14.4331 9.0407 14.4331H23.1046C23.6591 14.4331 24.1092 14.8641 24.1092 15.3952C24.1092 15.9263 23.6591 16.3573 23.1046 16.3573Z" fill="black"/>
<path d="M23.1046 16.3573H9.0407C8.48618 16.3573 8.03613 15.9263 8.03613 15.3952C8.03613 14.8641 8.48618 14.4331 9.0407 14.4331H23.1046C23.6591 14.4331 24.1092 14.8641 24.1092 15.3952C24.1092 15.9263 23.6591 16.3573 23.1046 16.3573Z" fill="black"/>
</svg>
