<svg width="68" height="68" viewBox="0 0 68 68" fill="none" xmlns="http://www.w3.org/2000/svg">
<circle cx="34" cy="34" r="34" fill="black"/>
<path d="M61.5396 28.6057L53 37.2529L54.7254 39L63.265 30.3528L61.5396 28.6057Z" fill="white"/>
<path d="M54.3363 37.8032L46.3585 29.8255C46.925 29.4471 47.4531 29.0143 47.9355 28.5333L50.7358 25.733L49.6045 24.6016L46.8042 27.402C43.3583 30.8398 37.7798 30.8398 34.3339 27.402L33.1337 26.2018C32.8342 25.9026 32.3533 25.8886 32.0368 26.1698L29.9093 28.0596C27.6123 30.0981 24.1919 30.2199 21.7556 28.3501L32.5305 18.2489C33.2709 17.552 34.25 17.1647 35.2668 17.1663H44.7079C45.3451 17.1683 45.9566 16.9151 46.4057 16.4631L50.7374 12.1313L49.6045 11L45.2728 15.3317C45.1226 15.4819 44.9187 15.5663 44.7063 15.5661H35.2652C33.8417 15.5642 32.4713 16.1063 31.4343 17.0815L20.0194 27.7844C19.6971 28.0868 19.6811 28.5931 19.9836 28.9153C19.9893 28.9214 19.9951 28.9274 20.001 28.9333C22.9981 31.9246 27.8062 32.0648 30.9727 29.2534L32.5353 27.8652L33.2025 28.5317C36.2785 31.6095 40.946 32.4457 44.8991 30.6272L53.2049 38.9345C53.9847 39.7393 53.9644 41.0239 53.1596 41.8037C52.3727 42.5661 51.1227 42.5661 50.3358 41.8037L48.3356 39.8035L47.2042 40.9348L49.2045 42.935C49.9958 43.7277 49.9958 45.0115 49.2045 45.8042C48.4011 46.5692 47.1387 46.5692 46.3353 45.8042L44.3351 43.8039L43.2037 44.9353L45.204 46.9355C45.9953 47.7282 45.9953 49.012 45.204 49.8046C44.4006 50.5696 43.1382 50.5696 42.3348 49.8046L40.3346 47.8044L39.2033 48.9357L41.2035 50.936C41.9948 51.7287 41.9948 53.0124 41.2035 53.8051C40.4001 54.5701 39.1378 54.5701 38.3344 53.8051L36.883 52.3538C38.2078 50.8709 38.0797 48.5948 36.5968 47.27C35.8222 46.578 34.7863 46.2541 33.7554 46.3818C34.0004 44.4174 32.6066 42.6264 30.6421 42.3814C30.3475 42.3447 30.0496 42.3447 29.7549 42.3814C30 40.4169 28.6061 38.6259 26.6417 38.3809C26.347 38.3442 26.0491 38.3442 25.7544 38.3809C25.998 36.4073 24.5955 34.6101 22.6221 34.3666C21.5921 34.2395 20.5575 34.563 19.7833 35.2541L13.1313 28.6021L12 29.7334L18.6352 36.3686L17.2006 37.8032C15.7836 39.2188 15.7823 41.5153 17.1979 42.9323C17.8788 43.614 18.803 43.9967 19.7665 43.996C19.9047 43.9905 20.0426 43.9774 20.1794 43.9567C19.9368 45.9304 21.34 47.727 23.3137 47.9695C23.4641 47.988 23.6155 47.997 23.767 47.9964C23.9052 47.9909 24.043 47.9778 24.1799 47.9572C23.9372 49.9309 25.3405 51.7275 27.3141 51.97C27.4646 51.9885 27.616 51.9975 27.7675 51.9969C27.9057 51.9914 28.0435 51.9783 28.1803 51.9577C27.9471 53.9422 29.3668 55.7401 31.3513 55.9733C32.4519 56.1026 33.5509 55.7206 34.3339 54.9365L35.7684 53.5019L37.203 54.9365C38.6192 56.3536 40.9161 56.3544 42.3332 54.9382C43.1119 54.16 43.4951 53.0703 43.375 51.9761C45.3651 52.1954 47.1561 50.7599 47.3754 48.7697C47.4045 48.5058 47.4045 48.2396 47.3754 47.9756C49.3656 48.195 51.1566 46.7594 51.3759 44.7692C51.405 44.5053 51.405 44.2391 51.3759 43.9752C53.3675 44.1939 55.1592 42.7568 55.378 40.7653C55.4982 39.671 55.115 38.5814 54.3363 37.8032ZM21.2011 41.8037C20.408 42.5941 19.1251 42.5941 18.332 41.8037C17.5407 41.011 17.5407 39.7272 18.332 38.9345L20.7322 36.5343C21.537 35.7545 22.8216 35.7748 23.6014 36.5796C24.3639 37.3665 24.3639 38.6165 23.6014 39.4034L21.2011 41.8037ZM25.2016 45.8042C24.4085 46.5946 23.1255 46.5946 22.3324 45.8042C21.5411 45.0115 21.5411 43.7277 22.3324 42.935L24.7327 40.5347C25.5375 39.7549 26.8221 39.7752 27.6019 40.5799C28.3644 41.3668 28.3644 42.6169 27.6019 43.4039L25.2016 45.8042ZM26.3329 49.8046C25.5416 49.012 25.5416 47.7282 26.3329 46.9355L28.7332 44.5352C29.538 43.7554 30.8226 43.7757 31.6023 44.5804C32.3648 45.3673 32.3648 46.6174 31.6023 47.4044L29.2021 49.8046C28.409 50.595 27.126 50.595 26.3329 49.8046ZM35.6028 51.4048L33.2025 53.8051C32.3977 54.5849 31.1132 54.5646 30.3334 53.7598C29.5709 52.9729 29.5709 51.7229 30.3334 50.936L32.7337 48.5357C33.5385 47.7559 34.823 47.7762 35.6028 48.5809C36.3653 49.3678 36.3653 50.6179 35.6028 51.4048Z" fill="white"/>
<path d="M30.5591 15.5661C30.3466 15.5663 30.1428 15.4819 29.9926 15.3317L25.6609 11L24.5295 12.1313L28.8613 16.4631C29.3104 16.9151 29.9219 17.1683 30.5591 17.1663H33.0962V15.5661H30.5591Z" fill="white"/>
</svg>
