<svg width="215" height="276" viewBox="0 0 215 276" fill="none" xmlns="http://www.w3.org/2000/svg">
<path d="M214.874 264.473L199.068 77.437C198.636 72.3292 194.607 68.4168 189.781 68.4168H157.184V52.7963C157.184 23.6844 134.894 0 107.496 0C80.0994 0 57.812 23.6844 57.812 52.7963V68.4168H25.1927C20.3667 68.4168 16.3376 72.3292 15.9063 77.437L0.0372811 265.209C-0.196433 267.98 0.676266 270.726 2.4428 272.778C4.20933 274.831 6.70685 276 9.3237 276H205.651C205.659 276 205.669 276 205.676 276C210.827 276 215 271.565 215 266.094C214.999 265.543 214.956 265 214.874 264.473ZM76.4595 52.7963C76.4595 34.6093 90.3829 19.813 107.497 19.813C124.613 19.813 138.538 34.6093 138.538 52.7963V68.4168H76.4595V52.7963ZM19.5226 256.188L33.717 88.2298H57.812V105.945C57.812 111.416 61.9853 115.852 67.1357 115.852C72.2862 115.852 76.4595 111.416 76.4595 105.945V88.2298H138.538V105.945C138.538 111.416 142.711 115.852 147.862 115.852C153.012 115.852 157.185 111.416 157.185 105.945V88.2298H181.258L195.453 256.188H19.5226Z" fill="black"/>
</svg>
