<svg width="21" height="19" viewBox="0 0 21 19" fill="none" xmlns="http://www.w3.org/2000/svg">
<path d="M19.9318 7.12609C19.6913 6.39693 19.0346 5.92578 18.259 5.92578H13.2574L11.6824 1.19578C11.4402 0.468669 10.785 0 10.0116 0C10.0092 0 10.0066 -2.12401e-08 10.0042 3.86447e-05C9.22763 0.00305459 8.57266 0.477524 8.33559 1.20881L6.80645 5.92578H1.76316C0.985604 5.92578 0.328482 6.39851 0.0891087 7.13007C-0.150303 7.86163 0.102207 8.62544 0.732428 9.07589L4.81299 11.9926L3.24233 16.7095C2.99924 17.4395 3.24753 18.2044 3.87485 18.6581C4.18992 18.886 4.55156 19 4.91344 19C5.27203 19 5.63082 18.888 5.94432 18.6639L10.032 15.7422L14.071 18.659C14.6977 19.1115 15.5092 19.1137 16.1384 18.6647C16.7676 18.2156 17.0211 17.4533 16.7843 16.7226L15.2508 11.9926L19.2967 9.07091C19.9231 8.61859 20.1724 7.85521 19.9318 7.12609V7.12609ZM18.6049 8.13411L13.8754 11.5495L15.6672 17.0767C15.7878 17.4487 15.5328 17.6662 15.4519 17.724C15.3709 17.7818 15.0818 17.9525 14.7627 17.7221L10.0354 14.3083L5.25713 17.7238C4.93647 17.953 4.6481 17.7803 4.56732 17.7219C4.48658 17.6634 4.2327 17.444 4.35649 17.0723L6.1955 11.5495L1.41958 8.13581C1.09872 7.90644 1.17434 7.58134 1.20515 7.48719C1.23596 7.39304 1.36726 7.08576 1.76316 7.08576H7.66224L9.45265 1.56291C9.57335 1.1906 9.90887 1.1604 10.0089 1.15998H10.0109C10.1133 1.15998 10.4454 1.18971 10.5683 1.55858L12.4087 7.08576H18.2591C18.654 7.08576 18.7857 7.39199 18.8167 7.48587C18.8477 7.57975 18.9238 7.90385 18.6049 8.13411V8.13411Z" fill="black"/>
<path d="M7.10935 7.04828L9.13339 1.17395H10.6177L12.1695 7.04828H18.2416L19.6179 8.0611L13.7887 11.9098L16.2918 17.7841L14.5983 18.3918L9.33579 14.9482L4.27568 18.1893L3.66847 17.7841L5.69251 11.9098L0.834808 8.0611V7.25085L7.10935 7.04828Z" fill="black"/>
<path fill-rule="evenodd" clip-rule="evenodd" d="M8.99384 0.978271H10.7684L12.3201 6.8526H18.3058L19.9599 8.06977L14.0326 11.9832L16.553 17.8982L14.5727 18.6089L9.33463 15.1813L4.27348 18.423L3.43429 17.8631L5.46236 11.9771L0.63913 8.15568V7.06138L6.96826 6.85706L8.99384 0.978271ZM9.2729 1.36959L7.25039 7.23947L1.03044 7.44027V7.96647L5.92263 11.8425L3.90261 17.7051L4.27785 17.9555L9.33691 14.7151L14.6239 18.1747L16.0304 17.67L13.5447 11.8364L19.276 8.05238L18.1773 7.24392H12.0188L10.467 1.36959H9.2729Z" fill="black"/>
</svg>
