<svg width="193" height="169" viewBox="0 0 193 169" fill="none" xmlns="http://www.w3.org/2000/svg">
<path d="M137.876 106.906C146.459 95.2769 151.181 80.6256 151.181 65.0929C151.181 29.7518 126.65 1 96.5 1C66.3465 1 41.8185 29.7518 41.8185 65.0929C41.8185 80.6256 46.541 95.2738 55.127 106.906C22.1117 117.522 1 139.835 1 164.671V167.752H192V164.671C192 139.838 170.888 117.525 137.876 106.906ZM96.5 7.16091C123.255 7.16091 145.02 33.1495 145.02 65.0924C145.02 80.8037 139.82 95.5139 130.378 106.518C121.246 117.161 109.217 123.021 96.4995 123.021C83.7858 123.021 71.7557 117.161 62.6215 106.521C53.1795 95.5134 47.9789 80.7975 47.9789 65.0924C47.9799 33.1495 69.7447 7.16091 96.5 7.16091ZM7.2874 161.591C9.04021 140.183 28.9938 121.078 59.2733 112.03C59.7478 112.547 60.262 113 60.7489 113.499C61.3555 114.115 61.9565 114.734 62.5817 115.319C63.3427 116.025 64.1249 116.681 64.9138 117.337C65.5514 117.87 66.1797 118.412 66.8329 118.908C67.6522 119.53 68.4994 120.097 69.3405 120.664C69.9998 121.111 70.6529 121.573 71.3277 121.986C72.2059 122.522 73.1084 122.99 74.0109 123.467C74.6887 123.825 75.3542 124.21 76.044 124.536C76.9837 124.983 77.945 125.349 78.9058 125.731C79.5868 126.002 80.2549 126.308 80.9483 126.548C81.9648 126.899 83.0031 127.167 84.0352 127.45C84.6945 127.629 85.3414 127.848 86.01 128.002C87.1654 128.263 88.339 128.433 89.5125 128.605C90.0794 128.688 90.6339 128.818 91.2039 128.885C92.9536 129.08 94.7219 129.187 96.5026 129.187C98.2833 129.187 100.048 129.083 101.801 128.885C102.384 128.821 102.954 128.685 103.536 128.599C104.694 128.423 105.855 128.26 106.995 128.001C107.679 127.844 108.344 127.622 109.016 127.434C110.036 127.157 111.055 126.892 112.053 126.547C112.762 126.304 113.449 125.99 114.151 125.712C115.091 125.336 116.033 124.976 116.954 124.539C117.66 124.206 118.341 123.815 119.034 123.445C119.918 122.977 120.805 122.515 121.668 121.991C122.355 121.57 123.017 121.101 123.689 120.645C124.524 120.081 125.356 119.527 126.166 118.911C126.825 118.411 127.459 117.863 128.1 117.327C128.886 116.671 129.668 116.018 130.423 115.316C131.045 114.736 131.643 114.117 132.243 113.507C132.736 113.005 133.254 112.549 133.731 112.029C164.008 121.08 183.961 140.185 185.714 161.593H7.2874V161.591Z" fill="#010002" stroke="black"/>
</svg>
